<svg width="1218" height="1218" viewBox="0 0 1218 1218" fill="none" xmlns="http://www.w3.org/2000/svg">
<path d="M548.576 131.376C593.794 177.975 598.751 237.422 597.984 299.094C597.979 306.315 597.979 306.315 597.974 313.682C597.835 336.959 597.137 359.132 592.268 382.005C575.318 380.751 571.993 376.029 560.383 362.779C556.611 358.02 552.838 353.262 548.952 348.36C545.776 346.773 542.599 345.187 539.326 343.553C536.15 361 532.973 378.448 529.7 396.424C522.553 398.803 522.553 398.803 515.262 401.23C511.679 393.823 511.679 393.823 508.023 386.266C470.051 303.295 470.051 303.295 404.564 242.618C401.63 240.834 398.695 239.05 395.672 237.211C370.141 226.846 336.325 227.853 310.769 237.549C287.062 251.727 269.064 268.862 260.176 295.489C255.367 332.879 263.153 360.574 284.241 391.617C327.995 447.254 399.341 484.719 468.636 495.857C474.245 496.759 474.245 496.759 479.967 497.68C566.129 510.404 649.397 506.843 722.217 454.101C770.568 414.353 795.207 343.929 819.378 287.979C841.259 237.883 862.358 202.921 914.735 180.135C921.088 180.135 927.441 180.135 933.986 180.135C939.131 225.349 917.038 263.637 889.999 298.332C883.124 306.863 876.143 315.295 869.125 323.708C852.053 344.48 841.061 360.906 839.232 388.313C838.757 394.679 838.757 394.679 838.273 401.174C838.093 404.365 837.913 407.556 837.728 410.843C861.205 393.259 878.076 373.226 895.99 350.068C905.109 338.747 905.109 338.747 918.946 325.829C930.457 314.987 930.457 314.987 933.986 297.892C939.746 277.76 946.162 269.547 962.864 257.038C978.807 255.536 978.807 255.536 991.741 257.038C997.168 285.614 998.066 298.673 982.116 324.327C969.79 337.392 956.022 348.753 942.352 360.376C924.903 375.688 914.238 388.962 905.109 410.843C908.205 409.387 911.3 407.931 914.49 406.431C1021.09 357.074 1021.09 357.074 1068.75 357.972C1070.25 368.787 1070.25 368.787 1068.75 382.005C1046.27 404.544 1017.43 412.297 988.094 422.587C984.31 423.972 980.525 425.356 976.626 426.783C973.175 427.995 969.724 429.206 966.168 430.455C956.311 434.628 956.311 434.628 953.238 449.294C956.465 449.219 959.693 449.143 963.018 449.066C977.706 448.765 992.393 448.578 1007.08 448.393C1012.16 448.272 1017.24 448.152 1022.47 448.027C1027.39 447.981 1032.3 447.934 1037.37 447.886C1044.14 447.773 1044.14 447.773 1051.04 447.657C1066.61 449.634 1075.63 454.149 1088 463.714C1088 468.472 1088 473.23 1088 478.133C1060.63 495.771 1033.88 495.17 1001.97 495.857C996.819 496.021 991.67 496.185 986.364 496.354C973.718 496.749 961.074 497.082 948.425 497.359C949.914 500.828 951.403 504.298 952.937 507.873C958.051 521.391 958.051 521.391 962.864 545.423C940.628 550.181 918.392 554.94 895.483 559.842C895.483 563.014 895.483 566.187 895.483 569.455C900.049 570.843 912.795 576.57 917.5 578C932.54 583.407 924.36 579.068 933.986 588.681C932.398 595.025 923.636 600.963 922 607.5C900.558 609.879 907.732 610.286 885.857 612.713C888.239 619.355 890.622 625.997 893.076 632.84C898.566 649.158 901.981 662.614 900.296 680.003C884.827 680.432 871.869 679.298 856.979 675.196C853.803 675.196 850.626 675.196 847.354 675.196C848.942 680.054 850.53 684.911 852.167 689.916C857.316 707.663 857.735 723.993 856.979 742.486C839.095 743.452 834.012 743.217 818.476 732.873C810.508 731.023 802.486 729.375 794.411 728.067C795.206 734.312 796 740.558 796.818 746.992C799.376 769.663 799.587 791.783 799.224 814.583C795.849 814.415 792.474 814.248 788.997 814.076C758.047 813.194 736.002 816.239 707.779 829.002C709.367 833.76 710.955 838.519 712.592 843.421C713.101 855.616 713.367 867.703 713.438 879.901C713.549 887.214 713.665 894.527 713.785 901.84C713.955 913.347 714.096 924.853 714.16 936.361C714.235 947.484 714.428 958.6 714.641 969.721C714.632 973.151 714.622 976.581 714.613 980.115C715.017 996.54 716.222 1005.33 726.47 1018.44C737.649 1026.81 747.487 1031.01 760.721 1035.38C781.158 1042.99 792.759 1049.87 804.037 1069.32C804.037 1072.5 804.037 1075.67 804.037 1078.94C788.155 1074.18 772.272 1069.42 755.908 1064.52C758.29 1069.67 760.673 1074.83 763.127 1080.14C769.801 1094.58 770.347 1100.37 770.347 1117.39C759.518 1116.49 759.518 1116.49 746.282 1112.58C739.647 1104.75 733.226 1096.73 727.03 1088.55C710.28 1076.44 694.276 1077.17 674.088 1078.94C660.783 1085.7 660.783 1085.7 650.023 1093.36C646.847 1093.36 643.67 1093.36 640.398 1093.36C642.211 1075.25 643.992 1061.86 653.032 1045.89C660.6 1028.71 664.881 998.308 662.5 980.115C660.055 956.594 658.306 959.983 658.5 936.361C658.522 931.284 658.478 919.731 658.5 914.5C658.556 902.105 654.744 889.461 654.836 877.066C635.777 877.066 616.718 877.066 597.081 877.066C597.11 898.607 597.339 920.116 597.683 941.652C597.671 947.709 597.658 953.765 597.645 960.005C598.389 995.564 601.688 1018.6 624.603 1046.49C630.772 1054.9 630.772 1054.9 630.772 1069.32C627.229 1069.1 623.687 1068.88 620.037 1068.65C590.838 1067.33 590.838 1067.33 563.692 1076.53C550.833 1092.1 541.022 1111.06 533 1129.5C530 1133 531 1134 525.5 1129.5C517.764 1114.05 514.985 1096.07 515.262 1078.94C510.695 1082.11 506.129 1085.28 501.424 1088.55C486.384 1098.16 486.384 1098.16 476.758 1098.16C478.073 1076.49 487.781 1064.54 501.011 1048.41C514.248 1037.29 528.055 1032.36 544.139 1026.07C545.259 1005.74 545.942 985.428 546.546 965.084C546.868 959.325 547.191 953.566 547.523 947.632C549.07 918.11 549.07 918.11 537.195 892.307C526.91 885.411 517.317 881.181 505.636 877.066C499.691 874.915 499.691 874.915 493.627 872.721C480.668 868.404 467.631 864.596 454.498 860.844C382.219 838.803 327.572 811 274.615 756.905C270.868 753.262 267.121 749.619 263.26 745.866C227.87 709.521 203.544 665.957 178.357 622.326C176.396 619.015 174.436 615.704 172.416 612.293C149.503 573.499 132.963 538.335 130.227 492.552C129.899 487.682 129.57 482.812 129.231 477.795C125.838 375.658 159.849 275.946 229.775 201.31C312.128 115.568 438.932 40.4484 548.576 131.376Z" fill="#070707"/>
<path d="M462.095 535.502C513.732 533.782 563.042 536.439 614.149 544.123C649.668 549.443 685.133 553.081 720.96 555.596C756.693 558.501 795.68 563.56 823.149 588.416C829.216 627.169 801.577 662.855 779.992 693.041C770.593 704.943 760.874 716.458 750.939 727.916C747.867 731.68 744.795 735.444 741.63 739.322C698.583 790.644 640.091 827 572.649 834.89C490.756 837.886 422.996 779.124 361 732.726C371.727 720.289 379.004 715.916 395.3 713.786C438.243 710.691 473.681 739.017 508.715 760.75C531.5 774.817 551.525 787.177 579.137 786.242C587.924 785.944 587.924 785.944 596.889 785.64C596.889 777.703 596.889 769.766 596.889 761.588C582.453 755.761 568.009 749.952 553.562 744.151C549.207 742.4 544.852 740.65 540.365 738.846C513.324 728.03 486.157 717.717 458.786 707.773C431.092 697.657 405.264 685.879 380.256 670.192C380.256 663.842 380.256 657.493 380.256 650.95C394.698 641.33 394.698 641.33 410.078 642.226C430.036 646.49 447.588 652.813 466.345 660.665C471.661 662.829 471.661 662.829 477.084 665.036C488.35 669.625 499.595 674.263 510.838 678.911C599.084 720.148 599.084 720.148 693.17 732.726C691.581 724.789 689.993 716.852 688.356 708.675C658.643 697.91 629.468 690.747 598.393 685.224C535.83 673.3 467.382 657.791 423.583 607.657C423.583 604.482 423.583 601.308 423.583 598.037C492.753 594.957 550.377 606.71 615.901 628.195C624.866 631.126 624.866 631.126 634.013 634.115C645.977 638.059 657.92 642.068 669.839 646.148C699.463 656.037 724.443 663.923 755.753 660.571C765.622 654.747 765.622 654.747 770.195 646.14C770.195 642.965 770.195 639.79 770.195 636.519C747.593 627.92 725.045 623.648 701.343 619.454C646.67 609.779 593.176 597.554 539.722 582.704C533.718 581.044 527.713 579.385 521.527 577.675C475.58 564.683 475.58 564.683 457.281 554.743C458.87 548.394 460.458 542.044 462.095 535.502Z" fill="#F9F9F9"/>
<path d="M500.636 151C518.849 157.567 527.088 164.704 538.816 180.069C545.003 197.272 546.368 207.375 538.947 224.308C529.382 239.342 521.723 250.096 504.037 254.913C481.577 255.663 465.388 251.715 447.424 237.606C437.804 228.017 437.804 228.017 436 214.831C438.994 188.967 451.347 175.294 470.873 158.792C485.905 151.3 485.905 151.3 500.636 151Z" fill="#F9F9F9"/>
<path d="M399 521.609C396.734 542.297 383.228 554.179 369.864 568.804C335.428 608.117 304.939 653.955 303.863 708C289.593 703.221 289.593 703.221 280.079 688.883C273.643 641.632 281.874 608.24 308.62 569.402C311.563 564.867 314.507 560.333 317.539 555.661C342.094 530.991 363.999 517.946 399 521.609Z" fill="#F5F5F5"/>
<path d="M583.644 408.668C594.14 416.438 598.939 417.145 601 430.454C598.629 448.123 597.692 455.169 583.644 466.643C572.542 470.335 560.462 471.343 549.328 467.827C537.578 458.058 537.455 461.665 530.021 448.561C529.764 433.731 531.82 425.309 539.373 412.585C554.4 403.481 566.485 405.509 583.644 408.668Z" fill="#0A0A0A"/>
<path d="M279.625 454.402C284.369 457.563 289.112 460.725 294 463.983C292.419 468.725 290.837 473.468 289.208 478.354C277.005 482.433 277.005 482.433 261.656 486.138C239.634 492.734 239.634 492.734 223.08 507.826C216.944 519.146 216.944 519.146 212.373 530.468C207.388 541.423 202.847 547.609 193.375 555C188.631 555 183.887 555 179 555C179.13 523.315 183.401 501.393 204.212 476.913C227.449 454.205 246.851 445.58 279.625 454.402Z" fill="#F3F3F3"/>
<path d="M818.2 444.19C815.976 457.294 813.423 468.379 808 480.55C802.968 495.073 803.58 502.48 808.6 516.911C813.352 520.111 818.104 523.311 823 526.608C821.416 533.007 819.832 539.407 818.2 546C787.551 545.226 771.832 527.668 751 507.215C753.539 488.85 757.59 478.535 769.9 464.794C772.418 461.919 774.937 459.045 777.531 456.083C790.556 443.102 800.545 443.72 818.2 444.19Z" fill="#F5F5F5"/>
<path d="M332 496.247C321.223 515.717 312.547 526.33 293.221 537.455C278.242 546.251 278.242 546.251 268.163 560.315C266.448 567.755 264.744 575.198 263.074 582.648C255.019 617.183 255.019 617.183 241.316 631C238.166 631 235.016 631 231.771 631C228.787 591.72 233.877 558.033 257.499 525.649C278.473 502.72 300.94 494.405 332 496.247Z" fill="#F1F1F1"/>
<path d="M865.75 464C872.185 464 878.62 464 885.25 464C892.554 479.731 895 488.287 895 506C880.722 503.071 868.865 498.598 856 492C860.266 469.25 860.266 469.25 865.75 464Z" fill="#EBEBEB"/>
</svg>
